<svg width="12" height="8" viewBox="0 0 12 8" fill="none" xmlns="http://www.w3.org/2000/svg">
<path d="M7.82928 3.91011L11.2532 0.839554C11.4126 0.694716 11.427 0.448492 11.2822 0.286274C11.1374 0.126953 10.8911 0.112469 10.7289 0.257307L6.00722 4.49525L5.08606 3.67258C5.08316 3.66968 5.08026 3.66678 5.08026 3.66389C5.05999 3.64361 5.03971 3.62623 5.01653 3.60885L1.26814 0.25441C1.10592 0.109572 0.859697 0.124056 0.714859 0.286274C0.570022 0.448492 0.584505 0.694716 0.746723 0.839554L4.21124 3.93618L0.761207 7.16606C0.604783 7.31379 0.596092 7.56002 0.743827 7.71934C0.822039 7.80045 0.926322 7.8439 1.03061 7.8439C1.1262 7.8439 1.22179 7.80914 1.29711 7.73962L4.79928 4.46339L5.74941 5.31214C5.82473 5.37876 5.91742 5.41063 6.01012 5.41063C6.10282 5.41063 6.19841 5.37587 6.27083 5.30924L7.24703 4.43442L10.7289 7.74251C10.8042 7.81493 10.9027 7.84969 10.9983 7.84969C11.1026 7.84969 11.204 7.80914 11.2822 7.72803C11.4299 7.5716 11.4241 7.32248 11.2677 7.17475L7.82928 3.91011Z" fill="#B6D2E3"/>
</svg>
