<svg width="100" height="100" viewBox="0 0 100 100" fill="none" xmlns="http://www.w3.org/2000/svg">
<path d="M64.754 11.4754H58.1966C58.1966 8.75945 55.9946 6.55738 53.2786 6.55738H48.3606V4.91803C48.3606 2.20207 46.1585 0 43.4425 0H30.3278C27.6118 0 25.4097 2.20207 25.4097 4.91803V6.55738H20.4917C17.7757 6.55738 15.5737 8.75945 15.5737 11.4754H9.0163C4.4913 11.481 0.825183 15.1471 0.81958 19.6721V44.2623C0.81958 45.1676 1.5536 45.9016 2.45892 45.9016C3.36425 45.9016 4.09827 45.1676 4.09827 44.2623V19.6721C4.09827 16.9562 6.30034 14.7541 9.0163 14.7541H15.5737V18.0328H9.0163C8.11098 18.0328 7.37696 18.7668 7.37696 19.6721V91.8033C7.37696 92.7086 8.11098 93.4426 9.0163 93.4426H64.754C65.6593 93.4426 66.3934 92.7086 66.3934 91.8033V19.6721C66.3934 18.7668 65.6593 18.0328 64.754 18.0328H58.1966V14.7541H64.754C67.47 14.7541 69.672 16.9562 69.672 19.6721V91.8033C69.672 94.5192 67.47 96.7213 64.754 96.7213H9.0163C6.30034 96.7213 4.09827 94.5192 4.09827 91.8033V72.1311C4.09827 71.2258 3.36425 70.4918 2.45892 70.4918C1.5536 70.4918 0.81958 71.2258 0.81958 72.1311V91.8033C0.825183 96.3283 4.4913 99.9944 9.0163 100H64.754C69.279 99.9944 72.9451 96.3283 72.9507 91.8033V19.6721C72.9451 15.1471 69.279 11.481 64.754 11.4754ZM28.6884 4.91803C28.6884 4.01271 29.4225 3.27869 30.3278 3.27869H43.4425C44.3479 3.27869 45.0819 4.01271 45.0819 4.91803V6.55738H28.6884V4.91803ZM63.1147 21.3115V90.1639H10.6556V21.3115H15.5737C15.5737 24.0274 17.7757 26.2295 20.4917 26.2295H40.1638C41.0692 26.2295 41.8032 25.4955 41.8032 24.5902C41.8032 23.6848 41.0692 22.9508 40.1638 22.9508H20.4917C19.5864 22.9508 18.8524 22.2168 18.8524 21.3115V11.4754C18.8524 10.5701 19.5864 9.83607 20.4917 9.83607H53.2786C54.1839 9.83607 54.9179 10.5701 54.9179 11.4754V21.3115C54.9179 22.2168 54.1839 22.9508 53.2786 22.9508C52.3733 22.9508 51.6393 23.6848 51.6393 24.5902C51.6393 25.4955 52.3733 26.2295 53.2786 26.2295C55.9946 26.2295 58.1966 24.0274 58.1966 21.3115H63.1147Z" fill="#FFFEFE"/>
<path d="M51.6393 16.3935C51.6393 15.4882 50.9053 14.7542 50 14.7542H23.7704C22.8651 14.7542 22.1311 15.4882 22.1311 16.3935C22.1311 17.2988 22.8651 18.0328 23.7704 18.0328H50C50.9053 18.0328 51.6393 17.2988 51.6393 16.3935Z" fill="#FFFEFE"/>
<path d="M51.9539 64.9775C51.3136 64.3371 50.2762 64.3371 49.6358 64.9775L41.5231 73.0917L38.0443 69.6145C37.6329 69.1887 37.0229 69.0174 36.4498 69.1679C35.8766 69.3176 35.4292 69.765 35.2795 70.3382C35.129 70.9121 35.3003 71.5212 35.7262 71.9327L40.364 76.569C41.0044 77.2085 42.0418 77.2085 42.6822 76.569L51.9539 67.2948C52.5943 66.6552 52.5943 65.617 51.9539 64.9775Z" fill="#FFFEFE"/>
<path d="M43.4425 54.0984C34.3885 54.0984 27.0491 61.4378 27.0491 70.4918C27.0491 79.5458 34.3885 86.8853 43.4425 86.8853C44.3478 86.8853 45.0819 86.1512 45.0819 85.2459C45.0819 84.3406 44.3478 83.6066 43.4425 83.6066C37.1861 83.6066 31.8006 79.1864 30.5799 73.0501C29.36 66.9138 32.6443 60.7694 38.4244 58.3753C44.2054 55.9811 50.8716 58.0038 54.348 63.206C57.8236 68.4082 57.1408 75.3418 52.7167 79.766C52.0947 80.4087 52.1043 81.4309 52.7359 82.0633C53.3682 82.6957 54.3912 82.7053 55.034 82.0833C59.7231 77.395 61.1255 70.3437 58.588 64.2186C56.0506 58.0927 50.0727 54.0984 43.4425 54.0984Z" fill="#FFFEFE"/>
<path d="M30.3278 36.0656H46.7213C47.6266 36.0656 48.3606 35.3315 48.3606 34.4262C48.3606 33.5209 47.6266 32.7869 46.7213 32.7869H30.3278C29.4225 32.7869 28.6885 33.5209 28.6885 34.4262C28.6885 35.3315 29.4225 36.0656 30.3278 36.0656Z" fill="#FFFEFE"/>
<path d="M17.2131 44.2623H46.7213C47.6266 44.2623 48.3606 43.5283 48.3606 42.623C48.3606 41.7177 47.6266 40.9836 46.7213 40.9836H17.2131C16.3078 40.9836 15.5737 41.7177 15.5737 42.623C15.5737 43.5283 16.3078 44.2623 17.2131 44.2623Z" fill="#FFFEFE"/>
<path d="M17.2131 52.459H31.9672C32.8725 52.459 33.6065 51.725 33.6065 50.8196C33.6065 49.9143 32.8725 49.1803 31.9672 49.1803H17.2131C16.3078 49.1803 15.5737 49.9143 15.5737 50.8196C15.5737 51.725 16.3078 52.459 17.2131 52.459Z" fill="#FFFEFE"/>
<path d="M23.7705 57.3771H17.2131C16.3078 57.3771 15.5737 58.1111 15.5737 59.0164C15.5737 59.9217 16.3078 60.6558 17.2131 60.6558H23.7705C24.6758 60.6558 25.4098 59.9217 25.4098 59.0164C25.4098 58.1111 24.6758 57.3771 23.7705 57.3771Z" fill="#FFFEFE"/>
<path d="M20.4918 65.5737H17.2131C16.3078 65.5737 15.5737 66.3078 15.5737 67.2131C15.5737 68.1184 16.3078 68.8524 17.2131 68.8524H20.4918C21.3971 68.8524 22.1311 68.1184 22.1311 67.2131C22.1311 66.3078 21.3971 65.5737 20.4918 65.5737Z" fill="#FFFEFE"/>
<path d="M53.2787 44.2623H56.5574C57.4627 44.2623 58.1968 43.5283 58.1968 42.623C58.1968 41.7177 57.4627 40.9836 56.5574 40.9836H53.2787C52.3734 40.9836 51.6394 41.7177 51.6394 42.623C51.6394 43.5283 52.3734 44.2623 53.2787 44.2623Z" fill="#FFFEFE"/>
<path d="M58.1967 34.4262C58.1967 35.3315 57.4626 36.0656 56.5573 36.0656C55.652 36.0656 54.918 35.3315 54.918 34.4262C54.918 33.5209 55.652 32.7869 56.5573 32.7869C57.4626 32.7869 58.1967 33.5209 58.1967 34.4262Z" fill="#FFFEFE"/>
<path d="M97.5411 26.2295H92.6231V21.3115C92.6231 20.4061 91.889 19.6721 90.9837 19.6721H84.4263V14.7541C84.4263 13.8488 85.1604 13.1147 86.0657 13.1147C86.971 13.1147 87.705 13.8488 87.705 14.7541C87.705 15.6594 88.439 16.3934 89.3444 16.3934C90.2497 16.3934 90.9837 15.6594 90.9837 14.7541C90.9837 12.0381 88.7816 9.83606 86.0657 9.83606C83.3497 9.83606 81.1476 12.0381 81.1476 14.7541V19.6721C80.2423 19.6721 79.5083 20.4061 79.5083 21.3115V68.8525C79.5083 68.8949 79.5299 68.9325 79.5331 68.9757C79.5363 69.0181 79.5195 69.0478 79.5243 69.0854L81.1476 80.4423V85.2459C81.1476 87.9619 83.3497 90.1639 86.0657 90.1639C88.7816 90.1639 90.9837 87.9619 90.9837 85.2459V80.4423L92.607 69.0854C92.607 69.0478 92.595 69.0117 92.5982 68.9757C92.6014 68.9397 92.6231 68.8949 92.6231 68.8525V36.0656H95.9017V50.8197C95.9017 51.725 96.6358 52.459 97.5411 52.459C98.4464 52.459 99.1804 51.725 99.1804 50.8197V27.8688C99.1804 26.9635 98.4464 26.2295 97.5411 26.2295ZM89.3444 22.9508V26.2295H82.787V22.9508H89.3444ZM87.9227 78.6885H84.2086L83.0375 70.4918H89.0938L87.9227 78.6885ZM82.787 29.5082H89.3444V32.7869H82.787V29.5082ZM87.705 85.2459C87.705 86.1512 86.971 86.8852 86.0657 86.8852C85.1604 86.8852 84.4263 86.1512 84.4263 85.2459V81.9672H87.705V85.2459ZM89.3444 67.2131H82.787V36.0656H89.3444V67.2131ZM92.6231 29.5082H95.9017V32.7869H92.6231V29.5082Z" fill="#FFFEFE"/>
</svg>
