<svg width="15" height="9" viewBox="0 0 15 9" fill="none" xmlns="http://www.w3.org/2000/svg">
<path d="M14.8281 4.08524C14.828 4.08506 14.8278 4.08485 14.8276 4.08468L11.766 1.03781C11.5366 0.809559 11.1656 0.810408 10.9373 1.0398C10.709 1.26917 10.7099 1.64015 10.9393 1.86843L12.9949 3.91405H0.585938C0.262324 3.91405 0 4.17638 0 4.49999C0 4.8236 0.262324 5.08593 0.585938 5.08593H12.9948L10.9393 7.13155C10.7099 7.35983 10.7091 7.73081 10.9373 7.96018C11.1657 8.1896 11.5367 8.19039 11.766 7.96217L14.8276 4.9153C14.8278 4.91513 14.828 4.91492 14.8282 4.91475C15.0577 4.6857 15.0569 4.31352 14.8281 4.08524Z" fill="#B6D2E3"/>
</svg>
