<svg width="12" height="12" viewBox="0 0 12 12" fill="none" xmlns="http://www.w3.org/2000/svg">
<path d="M11.731 9.48363L9.87775 7.63021C9.50863 7.26257 8.89735 7.27373 8.51537 7.65586L7.58171 8.58931C7.52272 8.5568 7.46167 8.52284 7.39748 8.48681C6.80788 8.16012 6.00092 7.71236 5.15177 6.86258C4.30009 6.01101 3.85192 5.20281 3.52423 4.61284C3.48965 4.55034 3.45652 4.49008 3.4238 4.43285L4.05042 3.80716L4.35849 3.49871C4.74106 3.11603 4.75161 2.50493 4.38335 2.13622L2.53014 0.282592C2.16188 -0.0856024 1.55032 -0.0744324 1.16775 0.308242L0.645455 0.833539L0.659728 0.847708C0.484594 1.07118 0.338247 1.32891 0.22934 1.60685C0.128949 1.87141 0.0664455 2.12387 0.0378657 2.37685C-0.206839 4.40551 0.720197 6.25955 3.23605 8.77544C6.71373 12.2529 9.51628 11.9902 9.63719 11.9773C9.90051 11.9459 10.1529 11.883 10.4093 11.7834C10.6848 11.6757 10.9424 11.5296 11.1657 11.3548L11.1772 11.365L11.7063 10.8468C12.0881 10.4642 12.0991 9.85292 11.731 9.48363Z" fill="#F2F2F2" fill-opacity="0.8"/>
</svg>
